<svg width="14" height="16" viewBox="0 0 14 16" fill="none" xmlns="http://www.w3.org/2000/svg">
<path d="M13.046 2.08C12.086 0.43 7.746 0.08 7.256 0.035L6.706 0V10.145C6.57888 10.0422 6.44341 9.95025 6.301 9.87C5.79879 9.61723 5.2506 9.46875 4.68947 9.43352C4.12834 9.39829 3.56588 9.47703 3.036 9.665C0.976 10.33 -0.349 12.23 0.0810004 13.9C0.176835 14.2532 0.344384 14.5828 0.573205 14.8684C0.802026 15.154 1.08722 15.3894 1.411 15.56C1.96608 15.8561 2.5869 16.0075 3.216 16C3.72226 15.9996 4.22522 15.9186 4.706 15.76C6.556 15.165 7.806 13.575 7.736 12.05V3.245C8.236 3.305 8.921 3.41 9.646 3.565C10.3637 3.67409 11.0532 3.92205 11.676 4.295C12.176 4.625 11.866 5.245 11.841 5.295C11.602 5.65788 11.3236 5.99325 11.011 6.295C10.9201 6.38518 10.8672 6.50681 10.8633 6.63482C10.8594 6.76283 10.9048 6.88745 10.99 6.983C11.0753 7.07854 11.194 7.13772 11.3217 7.14832C11.4493 7.15893 11.5761 7.12016 11.676 7.04C11.781 6.925 14.456 4.5 13.046 2.08Z" fill="black"/>
</svg>
